<?xml version="1.0" encoding="utf-8"?>
<svg viewBox="-3345.225 -4384.957 8184.976 9925.397" xmlns="http://www.w3.org/2000/svg">
  <path style="stroke: rgb(0, 0, 0); fill: rgb(81, 35, 35);" d="M 3018.929 2377.26 L 3112.866 2054.352 C 2388.405 1973.933 775.899 2365.377 776.181 2365.518 C 581.83 2740.458 511.88 2586.525 271.269 2547.522 C 432.446 2735.396 630.652 3134.628 652.888 3234.436 C 699.857 3187.285 964.055 3025.379 1057.992 3034.82 C 1416.213 2413.821 2471.307 2089.08 3018.929 2377.26 Z"/>
  <path style="stroke: rgb(0, 0, 0); fill: rgb(195, 57, 57);" d="M 2907.378 2870.43 C 2694.268 3230.804 1482.751 3890.382 999.281 3486.892 C 831.248 2645.62 2399.504 1988.824 3060.026 2359.647 L 2907.378 2870.43 Z"/>
  <path style="fill: rgb(216, 216, 216); stroke: rgb(0, 0, 0);" d="M 92.747 335.889" transform="matrix(1, 0, 0, 1, 1813.81543, 3023.695557)"/>
  <path style="stroke: rgba(0, 0, 0, 0); fill: rgba(0, 0, 0, 0.25);" d="M 125.873 476.474 C 125.597 476.627 137.039 489.115 141.438 488.678 C 147.827 490.828 172 482.387 175.876 460.525 C 174.735 464.489 160.934 474.475 159.759 472.367 C 159.398 473.812 144.481 474.443 144.562 474.119 C 144.686 473.871 141.65 472.604 141.315 473.273 L 125.873 476.474 Z" transform="matrix(1, 0, 0, 1, 1813.81543, 3023.695557)"/>
  <g transform="matrix(35.231754, 0, 0, 34.10936, -6877.682617, -6141.23291)" style="">
    <path style="stroke: rgb(0, 0, 0); fill: rgba(216, 216, 216, 0); stroke-width: 2px;" d="M 292.308 208.499 L 274.71 275.625 C 273.735 281.043 256.537 295.091 240.268 298 C 235.492 299.746 224.177 299.997 221.663 297.245 L 215.88 291.211 C 217.725 279.677 205.506 254.881 198.533 251.992 L 198.031 239.422 L 214.121 238.416 C 218.152 233.416 262.099 224.325 279.486 224.086 L 292.308 208.499 Z"/>
    <path style="stroke: rgb(0, 0, 0); fill: rgba(0, 0, 0, 0); stroke-width: 2px;" d="M 196.523 234.282 C 194.26 232.109 186.215 231.226 186.215 237.047 C 186.215 237.717 187.974 243.5 189.482 245.344"/>
    <path style="stroke: rgb(0, 0, 0); fill: rgba(216, 216, 216, 0); stroke-width: 2px;" d="M 276.234 300.021 C 271.457 312.927 250.067 316.13 244.285 312.969"/>
    <path style="stroke: rgb(0, 0, 0); fill: rgba(216, 216, 216, 0); stroke-width: 2px;" d="M 253.34 310.29 C 251.569 310.761 229.227 316.965 226.943 315.821"/>
    <path style="stroke: rgb(0, 0, 0); fill: rgba(216, 216, 216, 0); stroke-width: 2px;" d="M 208.962 203.425 C 204.062 199.957 192.122 201.354 191.681 202.747 C 190.739 205.721 193.555 208.554 197.78 210.202"/>
    <path style="stroke: rgb(0, 0, 0); fill: rgba(216, 216, 216, 0); stroke-width: 2px;" d="M 181.208 171.414 L 178.336 193.719 L 171.745 198.958"/>
    <path style="stroke: rgb(0, 0, 0); fill: rgba(216, 216, 216, 0); stroke-width: 2px;" d="M 174.111 187.805 L 173.773 197.606"/>
    <path style="stroke: rgb(0, 0, 0); fill: rgba(216, 216, 216, 0); stroke-width: 2px;" d="M 163.296 126.521 C 162.188 121.783 156.287 112.908 154.34 110.636"/>
    <path style="stroke: rgb(0, 0, 0); fill: rgba(216, 216, 216, 0); stroke-width: 2px;" d="M 158.227 110.974 L 152.312 102.863"/>
    <path style="stroke: rgb(0, 0, 0); fill: rgba(216, 216, 216, 0); stroke-width: 2px;" d="M 157.551 104.722 L 153.326 96.949"/>
    <path style="stroke: rgb(0, 0, 0); fill: rgba(216, 216, 216, 0); stroke-width: 2px;" d="M 183.912 217.921 L 179.916 210.879"/>
    <path style="stroke: rgb(0, 0, 0); fill: rgba(216, 216, 216, 0); stroke-width: 2px;" d="M 208.415 146.179 C 204.03 146.627 200.314 148.373 198.107 149.897 C 195.889 151.587 195.022 154.797 195.065 156.994"/>
    <path style="stroke: rgb(0, 0, 0); fill: rgba(216, 216, 216, 0); stroke-width: 2px;" d="M 289.695 207.595 L 294.258 209.454"/>
    <path style="stroke: rgb(0, 0, 0); fill: rgba(216, 216, 216, 0); stroke-width: 2px;" d="M 283.781 239.983 C 272.61 236.326 212.196 248.216 210.78 250.798"/>
    <path style="stroke: rgb(0, 0, 0); fill: rgba(216, 216, 216, 0); stroke-width: 2px;" d="M 200.979 253.671 C 205.204 254.045 208.583 257.499 210.78 256.713 C 212.639 256.544 216.96 251.088 217.805 248.722 L 217.54 249.277"/>
    <path style="stroke: rgb(0, 0, 0); fill: rgba(216, 216, 216, 0); stroke-width: 2px;" d="M 278.036 263.134 C 260.631 284.684 229.537 291.075 223.623 282.736 C 220.471 282.567 219.232 286.453 219.229 287.974"/>
    <path style="stroke: rgb(0, 0, 0); stroke-width: 2px; fill: rgba(164, 49, 49, 0);" d="M 281.584 248.77 C 243.688 238.711 219.496 267.395 223.707 283.158"/>
    <path style="stroke: rgb(0, 0, 0); fill: rgba(216, 216, 216, 0); stroke-width: 2px;" d="M 225.685 269.723 C 222.379 268.766 213.682 274.058 213.508 275.551"/>
    <path style="stroke: rgb(0, 0, 0); stroke-width: 5px; fill: rgba(196, 122, 2, 0);" d="M 226.716 133.532 C 228.248 128.503 224.376 124.71 222.303 121.221 L 294.086 93.808 L 286.885 105.423"/>
    <path style="stroke: rgb(0, 0, 0);" d="M 216.727 143.986 L 228.425 134.173 L 224.446 128.7 L 216.727 143.986 Z"/>
    <path style="stroke: rgb(0, 0, 0);" d="M 228.793 128.319 L 228.742 121.155 L 224.576 122.07 L 228.793 128.319 Z"/>
    <path style="stroke: rgb(0, 0, 0);" d="M 221.426 123.594 C 220.444 124.238 219.053 123.402 218.783 122.781 C 218.486 121.653 218.443 120.182 218.987 119.326 C 219.415 118.138 220.719 117.328 221.536 116.869 L 264.082 103.611 L 221.426 123.594 Z"/>
    <path style="stroke: rgb(0, 0, 0);" d="M 311.749 82.485 L 295.898 94.311 L 292.493 92.268 L 311.749 82.485 Z"/>
    <path style="stroke: rgb(0, 0, 0);" d="M 283.479 99.876 C 285.226 99.654 286.231 101.322 285.85 103.165 L 275.51 119.511 L 288.591 106.44 L 290.264 96.23 L 283.479 99.876 Z"/>
    <path style="stroke: rgb(0, 0, 0); fill: rgba(216, 216, 216, 0); stroke-width: 2px;" d="M 270.556 125.216 C 269.605 127.25 264.448 132.48 258.635 135.464 C 252.769 138.331 238.433 137.028 236.396 135.255"/>
    <path style="fill: rgb(216, 216, 216); stroke: rgb(0, 0, 0);" d="M 257.938 141.808 L 255.01 136.858"/>
    <path style="fill: rgb(216, 216, 216); stroke: rgb(0, 0, 0);" d="M 266.583 136.37 L 263.237 133.373"/>
    <path style="fill: rgb(216, 216, 216); stroke: rgb(0, 0, 0);" d="M 275.646 130.445 L 267.141 130.026"/>
    <path style="fill: rgb(216, 216, 216); stroke: rgb(0, 0, 0);" d="M 233.119 139.089 L 237.512 136.091"/>
    <path style="stroke: rgb(0, 0, 0); fill: rgb(215, 126, 52);" d="M 245.411 122.904 C 246.987 120.006 247.628 119.923 249.629 118.878 C 255.277 115.93 256.636 116.142 260.558 117.344 C 262.925 118.069 264.054 119.454 264.712 122.649 C 265.123 124.644 263.44 127.349 260.558 128.592 C 257.551 129.889 254.313 130.379 250.844 130.062 C 248.715 129.867 247.437 129.569 245.858 127.634 C 244.891 126.449 244.423 124.68 245.411 122.904 Z"/>
    <path style="stroke: rgb(0, 0, 0); fill: rgb(176, 175, 175);" d="M 247.392 121.115 C 248.478 120.355 249.502 120.588 250.652 121.115 C 251.862 121.882 251.904 123.48 250.907 124.694 C 249.992 126.164 248.798 126.441 246.945 126.483 C 245.151 126.524 244.502 123.69 247.392 121.115 Z"/>
    <path style="stroke: rgb(0, 0, 0); fill: rgb(22, 22, 22);" d="M 257.315 121.671 C 258.039 122.453 258.3 122.882 258.409 123.976 C 258.5 125.163 257.857 126.878 256.456 127.023 C 254.307 127.597 253.369 126.932 252.47 125.968 C 251.588 125.022 251.33 124.325 252.783 122.1 C 253.25 121.385 254.044 121.073 255.166 121.163 C 255.257 121.17 256.533 121.027 257.315 121.671 Z"/>
    <path style="stroke: rgb(0, 0, 0); fill: rgba(106, 82, 82, 0); stroke-width: 2px;" d="M 221.224 118.492 C 220.759 126.362 198.933 142.848 193.756 143.293 L 187.489 152.494"/>
    <path style="stroke: rgb(0, 0, 0); fill: rgba(216, 216, 216, 0); stroke-width: 2px;" d="M 214.002 121.808 L 212.654 109.013 C 229.345 122.588 284.593 79.077 287.242 72.477"/>
    <path style="stroke: rgb(0, 0, 0); fill: rgb(110, 62, 4);" d="M 195.599 114.182 C 210.751 94.183 227.251 97.541 249.276 60.504 L 288.002 58.788 C 276.332 61.334 258.875 65.937 256.139 70.554 C 243.814 89.358 231.696 107.142 225.501 111.731 C 203.847 121.334 191.726 134.491 187.755 138.202 C 186.72 119.565 195.75 106.731 198.784 103.887 L 195.599 114.182 Z"/>
    <path style="stroke: rgb(0, 0, 0); fill: rgba(41, 39, 37, 0); stroke-width: 2px;" d="M 189.18 114.624 C 185.077 118.434 184.129 137.583 185.464 139.81"/>
    <path style="stroke: rgb(0, 0, 0); fill: rgba(216, 216, 216, 0); stroke-width: 2px;" d="M 190.144 86.334 L 176.243 125.695 L 181.611 135.467"/>
    <path style="stroke: rgb(0, 0, 0);" d="M 171.209 155.206 L 157.228 147.18 C 156.71 148.561 129.137 152.055 127.454 151.581 C 128.703 155.114 127.322 155.978 126.807 158.054 C 129.079 157.809 131.595 156.758 132.632 158.313 C 134.168 159.866 133.239 162.196 132.891 163.361 L 135.74 163.232 C 135.314 159.533 134.905 156.75 136.128 154.3 L 156.84 151.969 L 167.973 155.983 L 171.209 155.206 Z"/>
    <path style="stroke: rgb(0, 0, 0);" d="M 119.946 149.769 L 128.49 151.97"/>
    <path style="stroke: rgb(0, 0, 0);" d="M 121.111 163.361 L 127.325 157.665"/>
    <path style="stroke: rgb(0, 0, 0);" d="M 127.195 168.798 L 135.459 163.611 L 133.28 162.067 L 127.195 168.798 Z"/>
    <path style="stroke: rgb(0, 0, 0);" d="M 166.387 162.999 L 151.829 172.08 C 149.007 173.036 144.846 171.812 142.61 170 L 138.658 172.634 C 140.491 172.603 144.205 175.13 144.274 177.695 L 166.387 162.999 Z"/>
    <path style="fill: rgb(216, 216, 216); stroke: rgb(0, 0, 0);" d="M 133.182 174.991 L 139.837 172.149"/>
    <path style="fill: rgb(216, 216, 216); stroke: rgb(0, 0, 0);" d="M 141.085 180.398 L 144.551 177.279"/>
    <path style="stroke: rgb(0, 0, 0); fill: rgb(215, 126, 52);" d="M 145.244 164.593 C 144.782 163.068 146.03 160.85 147.601 160.018 C 149.196 158.631 150.303 157.959 152.384 157.8 C 154.723 157.622 156.987 157.714 158.484 161.404 C 159.355 163.551 158.615 165.746 156.266 167.99 C 154.509 169.669 152.082 169.807 148.987 168.405 C 147.424 167.697 146.13 166.242 145.244 164.593 Z"/>
    <path style="fill: rgb(216, 216, 216); stroke: rgb(0, 0, 0);" d="M 145.106 163.198 C 145.367 162.28 146.367 161.613 147.768 161.613 C 148.856 161.919 149.715 162.836 149.315 164.032 C 148.764 165.246 148.02 165.607 146.565 165.034 C 145.39 164.616 145.289 164.032 145.106 163.198 Z"/>
    <path style="stroke: rgb(0, 0, 0); fill: rgb(15, 14, 14);" d="M 149.692 163.013 C 150.024 161.915 151.295 161.119 153.077 161.119 C 154.46 161.484 155.552 162.58 155.043 164.009 C 154.342 165.459 153.397 165.89 151.547 165.206 C 150.053 164.706 149.925 164.009 149.692 163.013 Z"/>
    <path style="stroke: rgb(0, 0, 0); fill: rgb(110, 62, 4);" d="M 173.437 150.266 C 161.795 148.394 132.086 138.435 121.147 130.084 C 117.001 132.225 112.007 142.112 111.668 144.864 L 109.425 142.927 C 109.479 138.822 115.905 123.522 119.618 118.974 L 159.676 133.04 L 162.225 137.219 L 173.437 150.266 Z"/>
    <path style="stroke: rgb(0, 0, 0); fill: rgba(216, 216, 216, 0); stroke-width: 2px;" d="M 191.685 220.55 L 180.194 211.087 C 177.606 210.184 168.873 206.612 167.521 201.624 C 164.926 192.049 176.69 158.59 174.111 151.155 C 171.427 143.037 160.949 138.4 159.748 134.125 L 160.423 127.535"/>
    <path style="stroke: rgb(0, 0, 0); fill: rgba(216, 216, 216, 0.09); stroke-width: 2px;" d="M 148.941 143.475 C 137.735 148.859 120.863 142.843 118.753 140.531"/>
    <path style="fill: rgb(216, 216, 216); stroke: rgb(0, 0, 0);" d="M 148.213 144.216 L 150.58 143.938"/>
    <path style="stroke: rgba(0, 0, 0, 0); fill: rgba(0, 0, 0, 0.3);" d="M 167.314 201.401 C 175.815 202.326 183.329 202.518 186.337 193.449 C 187.431 189.687 218.191 191.831 222.823 198.282 C 222.623 202.448 214.915 204.249 212.22 206.547 C 208.198 209.977 203.94 221.515 196.628 225.257 C 190.091 216.478 169.092 205.944 167.314 201.401 Z"/>
  </g>
</svg>